<svg width="104" height="134" viewBox="0 0 104 134" fill="none" xmlns="http://www.w3.org/2000/svg">
<path d="M47.8469 107.69C27.1349 105.681 10.9427 88.2328 10.9427 66.9938C10.9427 46.45 26.0917 29.4536 45.8265 26.5438C45.8093 25.1839 45.8391 23.7407 45.9333 22.2241C46.0932 19.649 46.412 17.2891 46.8057 15.1755L44.4047 20.4063C41.1531 20.9209 38.0151 21.773 35.0197 22.9156L30.2823 19.5558L21.5593 24.5918L22.1005 30.3746C19.5849 32.4188 17.2844 34.7151 15.2364 37.2282L9.46355 36.6881L4.4276 45.4104L7.76927 50.1224C6.61771 53.1235 5.75989 56.2694 5.24011 59.5292L0 61.9344V61.9812V72.0063V72.0531L5.23073 74.4542C5.74584 77.7063 6.5974 80.8443 7.74063 83.8391L4.38021 88.5766L9.41667 97.2995L15.1989 96.7584C17.2432 99.274 19.5396 101.575 22.0527 103.622L21.5125 109.396L30.2355 114.432L34.9469 111.09C37.964 112.247 41.1265 113.109 44.4047 113.628L46.8057 118.859C47.212 116.64 47.5391 114.193 47.712 111.542C47.7995 110.205 47.8412 108.92 47.8469 107.69Z" fill="#18806E"/>
<path d="M56.8779 118.859L59.2784 113.628C62.5617 113.108 65.7284 112.245 68.7487 111.085L73.4013 114.384L82.1237 109.348L81.5909 103.654C84.132 101.588 86.4528 99.2626 88.5159 96.7188L94.22 97.2527L99.256 88.5298L95.9377 83.8516C97.0836 80.8531 97.9372 77.7104 98.4524 74.4542L103.684 72.0531V72.0063V61.9812V61.9344L98.4435 59.5292C97.9232 56.2646 97.0633 53.1151 95.9091 50.1099L99.2085 45.4579L94.1727 36.735L88.4779 37.2678C86.4117 34.7266 84.0867 32.4058 81.5429 30.3433L82.0768 24.6391L73.3539 19.6031L68.6757 22.9208C65.6773 21.7751 62.5352 20.9219 59.2784 20.4063L56.8779 15.1755C56.5877 17.1167 56.3445 19.1918 56.1748 21.3881C56.0424 23.099 55.9664 24.7413 55.9336 26.3074C76.5992 28.361 92.7409 45.7875 92.7409 66.9938C92.7409 87.5094 77.6325 104.488 57.9367 107.432C57.9467 109.035 57.8915 110.771 57.7377 112.62C57.5487 114.895 57.2409 116.983 56.8779 118.859Z" fill="#18806E"/>
<path d="M47.7478 52.8909L55.3713 60.418C55.1849 55.0337 55.0062 52.9368 54.8546 47.7493H47.4863C47.5677 50.5065 47.6551 50.067 47.7478 52.8909Z" fill="#18806E"/>
<path d="M49.0743 66.9818L48.082 65.9484C48.1336 67.4468 48.1852 66.3583 48.2372 67.8594L49.0743 66.9818Z" fill="#18806E"/>
<path d="M55.6818 73.2394L48.5469 80.2842C48.6485 83.3634 48.7443 83.1888 48.8323 86.2148H56.2074C56.0522 80.8858 55.8703 78.6858 55.6818 73.2394Z" fill="#18806E"/>
<path d="M47.3139 38.8555H54.6848C54.6259 36.468 54.5739 35.4076 54.5338 33.1153C54.3192 20.7727 54.9202 14.9743 57.1972 11.3028C58.4442 8.95707 60.0644 7.91227 61.9374 7.88001C62.8728 7.86334 64.1655 8.13147 65.1062 8.40547L66.2619 0.794542C65.0838 0.378808 63.3207 -0.0251982 61.6827 0.00280179C58.1723 0.0641351 54.6895 1.72267 52.1764 5.2528C48.1764 10.8419 46.8911 17.7065 47.1463 32.3721C47.19 34.9028 47.2478 36.2091 47.3139 38.8555Z" fill="#18806E"/>
<path d="M56.3792 95.131H49.0041C49.0708 97.818 49.1292 99.1752 49.1745 101.769C49.4093 115.274 48.3145 119.628 46.3855 123.147C45.2505 125.201 43.5104 126.102 41.8724 126.131C40.9369 126.147 39.6443 125.879 38.7036 125.605L37.4219 132.717C38.4875 133.425 40.3703 133.973 42.4765 133.936C47.0407 133.857 50.2792 131.621 52.5464 127.37C55.2713 122.529 56.7989 116.162 56.5437 101.496C56.5 98.9899 56.4437 97.7238 56.3792 95.131Z" fill="#18806E"/>
<path d="M60.0531 67.0047L39.2657 87.5302H59.4063C60.4361 87.5302 63.2141 87.3182 64.0689 86.9739C64.9766 86.6078 65.6506 86.1604 66.3703 85.438C67.1459 84.661 67.7829 83.9146 68.2355 82.8854C68.6974 81.8354 69.4402 79.9558 69.4766 78.7744L73.4803 78.8063L71.8022 93.8594H30.2266V87.5302L50.3678 67.0047L30.2031 46.4791V40.1714H71.8022L73.4803 55.2558H69.4766C69.2902 54.6708 68.361 51.2083 66.7875 49.373C65.2141 47.537 63.4031 47.0427 62.1022 46.7703C61.5194 46.6542 60.7615 46.5766 59.8293 46.5375C58.897 46.499 57.9449 46.4791 56.9735 46.4791H39.2657L60.0531 67.0047Z" fill="#18806E"/>
</svg>
